<?xml version="1.0" encoding="UTF-8" standalone="no"?>
<!-- Created with Inkscape (http://www.inkscape.org/) -->

<svg
   xmlns:dc="http://purl.org/dc/elements/1.1/"
   xmlns:cc="http://creativecommons.org/ns#"
   xmlns:rdf="http://www.w3.org/1999/02/22-rdf-syntax-ns#"
   xmlns:svg="http://www.w3.org/2000/svg"
   xmlns="http://www.w3.org/2000/svg"
   xmlns:sodipodi="http://sodipodi.sourceforge.net/DTD/sodipodi-0.dtd"
   xmlns:inkscape="http://www.inkscape.org/namespaces/inkscape"
   width="32"
   height="32"
   viewBox="0 0 32 32"
   version="1.1"
   id="svg8"
   inkscape:version="0.92.5 (2060ec1f9f, 2020-04-08)"
   sodipodi:docname="connected.svg">
  <defs
     id="defs2" />
  <sodipodi:namedview
     id="base"
     pagecolor="#ffffff"
     bordercolor="#666666"
     borderopacity="1.0"
     inkscape:pageopacity="0.0"
     inkscape:pageshadow="2"
     inkscape:zoom="22.4"
     inkscape:cx="22.501297"
     inkscape:cy="14.300226"
     inkscape:document-units="px"
     inkscape:current-layer="layer1"
     showgrid="false"
     units="px"
     inkscape:window-width="1920"
     inkscape:window-height="998"
     inkscape:window-x="0"
     inkscape:window-y="33"
     inkscape:window-maximized="1" />
  <metadata
     id="metadata5">
    <rdf:RDF>
      <cc:Work
         rdf:about="">
        <dc:format>image/svg+xml</dc:format>
        <dc:type
           rdf:resource="http://purl.org/dc/dcmitype/StillImage" />
        <dc:title />
      </cc:Work>
    </rdf:RDF>
  </metadata>
  <g
     inkscape:label="Layer 1"
     inkscape:groupmode="layer"
     id="layer1"
     transform="translate(0,-288.53333)">
    <path
       style="opacity:1;fill:#00ff00;fill-opacity:1;stroke:none;stroke-width:1.1101191;stroke-opacity:1"
       d="M 25.082031 2.8828125 A 2.9140625 2.9140625 0 0 0 22.167969 5.796875 A 2.9140625 2.9140625 0 0 0 22.175781 5.9707031 L 9.1210938 9.7617188 A 2.9140625 2.9140625 0 0 0 6.9375 8.7734375 A 2.9140625 2.9140625 0 0 0 4.0234375 11.6875 A 2.9140625 2.9140625 0 0 0 6.9375 14.601562 A 2.9140625 2.9140625 0 0 0 7.5253906 14.541016 L 16.146484 25.261719 A 2.9140625 2.9140625 0 0 0 16.015625 26.119141 A 2.9140625 2.9140625 0 0 0 18.929688 29.033203 A 2.9140625 2.9140625 0 0 0 21.84375 26.119141 A 2.9140625 2.9140625 0 0 0 21.048828 24.125 L 25.181641 8.7070312 A 2.9140625 2.9140625 0 0 0 27.996094 5.796875 A 2.9140625 2.9140625 0 0 0 25.082031 2.8828125 z M 22.921875 8.1679688 L 18.892578 23.207031 A 2.9140625 2.9140625 0 0 0 17.695312 23.484375 L 9.4257812 13.199219 A 2.9140625 2.9140625 0 0 0 9.8339844 11.970703 L 22.921875 8.1679688 z "
       transform="translate(0,288.53333)"
       id="path5888" />
  </g>
</svg>
